<?xml version="1.0" encoding="utf-8"?>
<!-- Generator: Adobe Illustrator 26.0.1, SVG Export Plug-In . SVG Version: 6.00 Build 0)  -->
<svg version="1.1" id="Camada_1" xmlns="http://www.w3.org/2000/svg" xmlns:xlink="http://www.w3.org/1999/xlink" x="0px" y="0px"
	 viewBox="0 0 50 50" style="enable-background:new 0 0 50 50;" xml:space="preserve">
<style type="text/css">
	.st0{fill:#FFFFFF;}
	.st1{fill:#6A88B9;}
</style>
<g>
	<path d="M-127.36-41.76h-17.81c-5.04,0-9.13-4.09-9.13-9.13V-68.7c0-5.04,4.09-9.13,9.13-9.13h17.81c5.04,0,9.13,4.09,9.13,9.13
		v17.81C-118.23-45.85-122.32-41.76-127.36-41.76z"/>
	<g>
		<g>
			<g>
				<path class="st0" d="M-130.74-66.47c-0.68,0-1.22,0.55-1.22,1.22c0,0.68,0.55,1.22,1.22,1.22c0.68,0,1.22-0.55,1.22-1.22
					C-129.51-65.92-130.06-66.47-130.74-66.47z"/>
				<path class="st0" d="M-136.18-64.9c-2.84,0-5.14,2.31-5.14,5.14c0,2.84,2.31,5.14,5.14,5.14s5.14-2.31,5.14-5.14
					S-133.34-64.9-136.18-64.9z M-136.18-56.46c-1.82,0-3.29-1.48-3.29-3.29c0-1.82,1.48-3.29,3.29-3.29s3.29,1.48,3.29,3.29
					S-134.36-56.46-136.18-56.46z"/>
				<path class="st0" d="M-132.1-49.32h-8.34c-3.46,0-6.27-2.81-6.27-6.27v-8.34c0-3.46,2.81-6.27,6.27-6.27h8.34
					c3.46,0,6.27,2.81,6.27,6.27v8.34C-125.82-52.13-128.64-49.32-132.1-49.32z M-140.44-68.24c-2.38,0-4.31,1.93-4.31,4.31v8.34
					c0,2.38,1.93,4.31,4.31,4.31h8.34c2.38,0,4.31-1.93,4.31-4.31v-8.34c0-2.38-1.93-4.31-4.31-4.31H-140.44z"/>
			</g>
		</g>
	</g>
</g>
<path d="M37.34-132.58H12.66C5.67-132.58,0-126.91,0-119.92v24.69c0,6.99,5.67,12.66,12.66,12.66h8.49v-17.86h-6.27v-7.14h6.27
	v-5.44c0-6.19,3.69-9.61,9.33-9.61c2.7,0,5.53,0.48,5.53,0.48v6.08H32.9c-3.07,0-4.02,1.9-4.02,3.86v4.63h6.85l-1.09,7.14h-5.75
	v17.86h0.01h8.48c6.99,0,12.66-5.67,12.66-12.66v-24.69C50-126.91,44.33-132.58,37.34-132.58z"/>
<g>
	<path d="M-127.36,232.73h-17.81c-5.04,0-9.13-4.09-9.13-9.13v-17.81c0-5.04,4.09-9.13,9.13-9.13h17.81c5.04,0,9.13,4.09,9.13,9.13
		v17.81C-118.23,228.64-122.32,232.73-127.36,232.73z"/>
	<g>
		<path class="st0" d="M-126.73,212.52c0-2.36-1.92-4.28-4.28-4.28h-10.94c-2.36,0-4.28,1.92-4.28,4.28v5.09
			c0,2.36,1.92,4.28,4.28,4.28h10.94c2.36,0,4.28-1.91,4.28-4.28C-126.73,217.61-126.73,212.52-126.73,212.52z M-133.16,215.44
			l-4.9,2.43c-0.19,0.1-0.85-0.04-0.85-0.25v-4.98c0-0.22,0.66-0.36,0.85-0.25l4.69,2.55
			C-133.17,215.05-132.96,215.34-133.16,215.44z"/>
	</g>
</g>
<g>
	<g>
		<path class="st1" d="M38.24,8.93c-1.62,0-2.93,1.31-2.93,2.93s1.31,2.93,2.93,2.93s2.93-1.31,2.93-2.93
			C41.17,10.24,39.86,8.93,38.24,8.93z"/>
		<path class="st1" d="M25.21,12.69c-6.79,0-12.31,5.52-12.31,12.31s5.52,12.31,12.31,12.31S37.52,31.79,37.52,25
			S31.99,12.69,25.21,12.69z M25.21,32.89c-4.35,0-7.89-3.54-7.89-7.89s3.54-7.89,7.89-7.89S33.1,20.65,33.1,25
			S29.55,32.89,25.21,32.89z"/>
		<path class="st1" d="M34.98,50H15.02C6.74,50,0,43.26,0,34.98V15.02C0,6.74,6.74,0,15.02,0h19.96C43.26,0,50,6.74,50,15.02v19.96
			C50,43.26,43.26,50,34.98,50z M15.02,4.7C9.33,4.7,4.7,9.33,4.7,15.02v19.96c0,5.69,4.63,10.31,10.31,10.31h19.96
			c5.69,0,10.32-4.63,10.32-10.31V15.02c0-5.69-4.63-10.31-10.32-10.31H15.02V4.7z"/>
	</g>
</g>
<path d="M-191.72-112.54l0.99-6.45h-6.19v-4.18c0-1.76,0.86-3.48,3.63-3.48h2.81v-5.49c0,0-2.55-0.44-4.99-0.44
	c-5.1,0-8.42,3.09-8.42,8.68v4.91h-5.66v6.45h5.66v15.59h6.97v-15.59C-196.92-112.54-191.72-112.54-191.72-112.54z"/>
<path d="M-181.91,210.34c0-4.39-3.56-7.94-7.94-7.94h-20.31c-4.39,0-7.94,3.56-7.94,7.94v9.45c0,4.39,3.56,7.94,7.94,7.94h20.31
	c4.39,0,7.94-3.56,7.94-7.94V210.34z M-193.86,215.77l-9.11,4.51c-0.36,0.19-1.57-0.07-1.57-0.47v-9.25c0-0.41,1.22-0.67,1.58-0.47
	l8.72,4.74C-193.87,215.04-193.49,215.57-193.86,215.77z"/>
</svg>
