<?xml version="1.0" encoding="utf-8"?>
<!-- Generator: Adobe Illustrator 26.0.1, SVG Export Plug-In . SVG Version: 6.00 Build 0)  -->
<svg version="1.1" id="Camada_1" xmlns="http://www.w3.org/2000/svg" xmlns:xlink="http://www.w3.org/1999/xlink" x="0px" y="0px"
	 viewBox="0 0 50 50" style="enable-background:new 0 0 50 50;" xml:space="preserve">
<style type="text/css">
	.st0{fill:#FFFFFF;}
	.st1{fill:#6A88B9;}
</style>
<g>
	<path d="M-127.36-41.76h-17.81c-5.04,0-9.13-4.09-9.13-9.13V-68.7c0-5.04,4.09-9.13,9.13-9.13h17.81c5.04,0,9.13,4.09,9.13,9.13
		v17.81C-118.23-45.85-122.32-41.76-127.36-41.76z"/>
	<g>
		<g>
			<g>
				<path class="st0" d="M-130.74-66.47c-0.68,0-1.22,0.55-1.22,1.22c0,0.68,0.55,1.22,1.22,1.22c0.68,0,1.22-0.55,1.22-1.22
					C-129.51-65.92-130.06-66.47-130.74-66.47z"/>
				<path class="st0" d="M-136.18-64.9c-2.84,0-5.14,2.31-5.14,5.14c0,2.84,2.31,5.14,5.14,5.14s5.14-2.31,5.14-5.14
					S-133.34-64.9-136.18-64.9z M-136.18-56.46c-1.82,0-3.29-1.48-3.29-3.29c0-1.82,1.48-3.29,3.29-3.29s3.29,1.48,3.29,3.29
					S-134.36-56.46-136.18-56.46z"/>
				<path class="st0" d="M-132.1-49.32h-8.34c-3.46,0-6.27-2.81-6.27-6.27v-8.34c0-3.46,2.81-6.27,6.27-6.27h8.34
					c3.46,0,6.27,2.81,6.27,6.27v8.34C-125.82-52.13-128.64-49.32-132.1-49.32z M-140.44-68.24c-2.38,0-4.31,1.93-4.31,4.31v8.34
					c0,2.38,1.93,4.31,4.31,4.31h8.34c2.38,0,4.31-1.93,4.31-4.31v-8.34c0-2.38-1.93-4.31-4.31-4.31H-140.44z"/>
			</g>
		</g>
	</g>
</g>
<path class="st1" d="M37.34,0H12.66C5.67,0,0,5.67,0,12.66v24.69C0,44.33,5.67,50,12.66,50h8.49V32.14h-6.27V25h6.27v-5.44
	c0-6.19,3.69-9.61,9.33-9.61c2.7,0,5.53,0.48,5.53,0.48v6.08H32.9c-3.07,0-4.02,1.9-4.02,3.86V25h6.85l-1.09,7.14h-5.75V50h0.01
	h8.48C44.33,50,50,44.33,50,37.34V12.66C50,5.67,44.33,0,37.34,0z"/>
<g>
	<path d="M-127.36,232.73h-17.81c-5.04,0-9.13-4.09-9.13-9.13v-17.81c0-5.04,4.09-9.13,9.13-9.13h17.81c5.04,0,9.13,4.09,9.13,9.13
		v17.81C-118.23,228.64-122.32,232.73-127.36,232.73z"/>
	<g>
		<path class="st0" d="M-126.73,212.52c0-2.36-1.92-4.28-4.28-4.28h-10.94c-2.36,0-4.28,1.92-4.28,4.28v5.09
			c0,2.36,1.92,4.28,4.28,4.28h10.94c2.36,0,4.28-1.91,4.28-4.28C-126.73,217.61-126.73,212.52-126.73,212.52z M-133.16,215.44
			l-4.9,2.43c-0.19,0.1-0.85-0.04-0.85-0.25v-4.98c0-0.22,0.66-0.36,0.85-0.25l4.69,2.55
			C-133.17,215.05-132.96,215.34-133.16,215.44z"/>
	</g>
</g>
<g>
	<g>
		<path d="M-190.58-71.25c-1.15,0-2.09,0.94-2.09,2.09c0,1.15,0.94,2.09,2.09,2.09s2.09-0.94,2.09-2.09S-189.43-71.25-190.58-71.25z
			"/>
		<path d="M-199.87-68.57c-4.84,0-8.77,3.94-8.77,8.77c0,4.84,3.94,8.77,8.77,8.77c4.84,0,8.77-3.94,8.77-8.77
			C-191.09-64.63-195.03-68.57-199.87-68.57z M-199.87-54.18c-3.1,0-5.62-2.52-5.62-5.62s2.52-5.62,5.62-5.62
			c3.1,0,5.62,2.52,5.62,5.62S-196.77-54.18-199.87-54.18z"/>
		<path d="M-192.9-41.98h-14.22c-5.9,0-10.7-4.8-10.7-10.7V-66.9c0-5.9,4.8-10.7,10.7-10.7h14.22c5.9,0,10.7,4.8,10.7,10.7v14.22
			C-182.2-46.78-187-41.98-192.9-41.98z M-207.12-74.26c-4.05,0-7.35,3.3-7.35,7.35v14.22c0,4.05,3.3,7.35,7.35,7.35h14.22
			c4.05,0,7.35-3.3,7.35-7.35v-14.22c0-4.05-3.3-7.35-7.35-7.35H-207.12z"/>
	</g>
</g>
<path d="M-191.72-112.54l0.99-6.45h-6.19v-4.18c0-1.76,0.86-3.48,3.63-3.48h2.81v-5.49c0,0-2.55-0.44-4.99-0.44
	c-5.1,0-8.42,3.09-8.42,8.68v4.91h-5.66v6.45h5.66v15.59h6.97v-15.59C-196.92-112.54-191.72-112.54-191.72-112.54z"/>
<path d="M-181.91,210.34c0-4.39-3.56-7.94-7.94-7.94h-20.31c-4.39,0-7.94,3.56-7.94,7.94v9.45c0,4.39,3.56,7.94,7.94,7.94h20.31
	c4.39,0,7.94-3.56,7.94-7.94V210.34z M-193.86,215.77l-9.11,4.51c-0.36,0.19-1.57-0.07-1.57-0.47v-9.25c0-0.41,1.22-0.67,1.58-0.47
	l8.72,4.74C-193.87,215.04-193.49,215.57-193.86,215.77z"/>
</svg>
