<?xml version="1.0" encoding="utf-8"?>
<!-- Generator: Adobe Illustrator 26.0.1, SVG Export Plug-In . SVG Version: 6.00 Build 0)  -->
<svg version="1.1" id="Camada_1" xmlns="http://www.w3.org/2000/svg" xmlns:xlink="http://www.w3.org/1999/xlink" x="0px" y="0px"
	 viewBox="0 0 197 53" style="enable-background:new 0 0 197 53;" xml:space="preserve">
<style type="text/css">
	.st0{fill:#359830;}
	.st1{fill:#C90C0F;}
	.st2{fill:#1D1D1B;}
</style>
<g>
	<path class="st0" d="M25.38,10.91c0,0.61-0.49,1.1-1.1,1.1H15.2c-0.61,0-1.1-0.49-1.1-1.1V1.83c0-0.61,0.49-1.1,1.1-1.1h9.08
		c0.61,0,1.1,0.49,1.1,1.1V10.91z"/>
	<path class="st0" d="M38.91,10.91c0,0.61-0.49,1.1-1.1,1.1h-9.08c-0.61,0-1.1-0.49-1.1-1.1V1.83c0-0.61,0.49-1.1,1.1-1.1h9.08
		c0.61,0,1.1,0.49,1.1,1.1V10.91z"/>
	<path class="st0" d="M38.91,37.98c0,0.61-0.49,1.1-1.1,1.1h-9.08c-0.61,0-1.1-0.49-1.1-1.1V28.9c0-0.61,0.49-1.1,1.1-1.1h9.08
		c0.61,0,1.1,0.49,1.1,1.1V37.98z"/>
	<path class="st0" d="M11.84,24.44c0,0.61-0.49,1.1-1.1,1.1H1.66c-0.61,0-1.1-0.49-1.1-1.1v-9.08c0-0.61,0.49-1.1,1.1-1.1h9.08
		c0.61,0,1.1,0.49,1.1,1.1V24.44z"/>
	<path class="st0" d="M25.38,24.44c0,0.61-0.49,1.1-1.1,1.1H15.2c-0.61,0-1.1-0.49-1.1-1.1v-9.08c0-0.61,0.49-1.1,1.1-1.1h9.08
		c0.61,0,1.1,0.49,1.1,1.1V24.44z"/>
	<path class="st0" d="M11.84,37.98c0,0.61-0.49,1.1-1.1,1.1H1.66c-0.61,0-1.1-0.49-1.1-1.1V28.9c0-0.61,0.49-1.1,1.1-1.1h9.08
		c0.61,0,1.1,0.49,1.1,1.1V37.98z"/>
	<path class="st0" d="M25.38,37.98c0,0.61-0.49,1.1-1.1,1.1H15.2c-0.61,0-1.1-0.49-1.1-1.1V28.9c0-0.61,0.49-1.1,1.1-1.1h9.08
		c0.61,0,1.1,0.49,1.1,1.1V37.98z"/>
	<path class="st0" d="M11.84,51.53c0,0.61-0.49,1.1-1.1,1.1H1.66c-0.61,0-1.1-0.49-1.1-1.1v-9.08c0-0.61,0.49-1.1,1.1-1.1h9.08
		c0.61,0,1.1,0.49,1.1,1.1V51.53z"/>
	<path class="st0" d="M25.38,51.53c0,0.61-0.49,1.1-1.1,1.1H15.2c-0.61,0-1.1-0.49-1.1-1.1v-9.08c0-0.61,0.49-1.1,1.1-1.1h9.08
		c0.61,0,1.1,0.49,1.1,1.1V51.53z"/>
	<path class="st1" d="M12.41,6.37c0,3.43-2.78,6.2-6.2,6.2C2.78,12.57,0,9.8,0,6.37c0-3.43,2.78-6.21,6.2-6.21
		C9.63,0.16,12.41,2.94,12.41,6.37"/>
	<path class="st2" d="M46.21,43.83h2.51c1.18,0,2.03,0.18,2.56,0.53c0.53,0.35,0.79,0.91,0.79,1.67c0,0.53-0.15,0.96-0.44,1.3
		c-0.29,0.34-0.72,0.56-1.29,0.66v0.06c1.35,0.23,2.03,0.94,2.03,2.13c0,0.79-0.27,1.41-0.81,1.86c-0.54,0.45-1.29,0.67-2.25,0.67
		h-3.1V43.83z M47.25,47.64h1.7c0.73,0,1.26-0.11,1.58-0.34s0.48-0.61,0.48-1.16c0-0.5-0.18-0.86-0.54-1.08
		c-0.36-0.22-0.92-0.33-1.7-0.33h-1.52V47.64z M47.25,48.51v3.32h1.86c0.72,0,1.26-0.14,1.62-0.42c0.36-0.28,0.54-0.71,0.54-1.3
		c0-0.55-0.19-0.96-0.56-1.21c-0.37-0.26-0.94-0.39-1.69-0.39H47.25z"/>
	<path class="st2" d="M58.23,52.71l-0.2-0.95h-0.05c-0.33,0.42-0.66,0.7-1,0.85c-0.33,0.15-0.74,0.22-1.24,0.22
		c-0.66,0-1.18-0.17-1.55-0.51c-0.38-0.34-0.56-0.82-0.56-1.45c0-1.34,1.08-2.05,3.23-2.11L58,48.72v-0.41
		c0-0.52-0.11-0.91-0.34-1.16c-0.23-0.25-0.59-0.37-1.08-0.37c-0.56,0-1.18,0.17-1.89,0.51l-0.31-0.77
		c0.33-0.18,0.69-0.32,1.08-0.42s0.78-0.15,1.18-0.15c0.79,0,1.38,0.18,1.77,0.53c0.38,0.35,0.57,0.92,0.57,1.69v4.54H58.23z
		 M55.95,52c0.63,0,1.12-0.17,1.48-0.52c0.36-0.34,0.54-0.83,0.54-1.45v-0.6l-1.01,0.04c-0.8,0.03-1.38,0.15-1.74,0.37
		c-0.36,0.22-0.53,0.56-0.53,1.03c0,0.36,0.11,0.64,0.33,0.83C55.24,51.91,55.55,52,55.95,52"/>
	<path class="st2" d="M65.63,52.71v-4.31c0-0.54-0.12-0.95-0.37-1.21c-0.25-0.27-0.63-0.4-1.16-0.4c-0.7,0-1.21,0.19-1.54,0.57
		c-0.32,0.38-0.48,1-0.48,1.87v3.48h-1.01v-9.45h1.01v2.86c0,0.34-0.02,0.63-0.05,0.86h0.06c0.2-0.32,0.48-0.57,0.85-0.76
		c0.37-0.18,0.79-0.28,1.26-0.28c0.82,0,1.43,0.19,1.83,0.58c0.41,0.39,0.61,1,0.61,1.84v4.34H65.63z"/>
	<path class="st2" d="M68.63,44.25c0-0.23,0.06-0.4,0.17-0.51s0.26-0.16,0.43-0.16c0.16,0,0.3,0.05,0.42,0.16
		c0.12,0.11,0.18,0.28,0.18,0.5c0,0.23-0.06,0.4-0.18,0.51c-0.12,0.11-0.26,0.17-0.42,0.17c-0.17,0-0.31-0.06-0.43-0.17
		S68.63,44.48,68.63,44.25 M69.72,52.71h-1.01v-6.66h1.01V52.71z"/>
	<path class="st2" d="M75.96,52.71l-0.2-0.95h-0.05c-0.33,0.42-0.66,0.7-1,0.85c-0.33,0.15-0.74,0.22-1.24,0.22
		c-0.66,0-1.18-0.17-1.55-0.51c-0.38-0.34-0.56-0.82-0.56-1.45c0-1.34,1.08-2.05,3.23-2.11l1.13-0.04v-0.41
		c0-0.52-0.11-0.91-0.34-1.16c-0.23-0.25-0.59-0.37-1.08-0.37c-0.56,0-1.18,0.17-1.89,0.51l-0.31-0.77
		c0.33-0.18,0.69-0.32,1.08-0.42s0.78-0.15,1.18-0.15c0.79,0,1.38,0.18,1.77,0.53c0.38,0.35,0.57,0.92,0.57,1.69v4.54H75.96z
		 M73.68,52c0.63,0,1.12-0.17,1.48-0.52c0.36-0.34,0.54-0.83,0.54-1.45v-0.6l-1.01,0.04c-0.8,0.03-1.38,0.15-1.74,0.37
		c-0.36,0.22-0.53,0.56-0.53,1.03c0,0.36,0.11,0.64,0.33,0.83C72.97,51.91,73.28,52,73.68,52"/>
	<rect x="46.1" y="28.57" class="st2" width="2.33" height="10.97"/>
	<path class="st2" d="M60.97,39.54h-2.96l-4.78-8.3h-0.07c0.1,1.47,0.14,2.51,0.14,3.14v5.16h-2.08V28.57h2.94l4.77,8.21h0.05
		c-0.08-1.42-0.11-2.43-0.11-3.02v-5.19h2.1V39.54z"/>
	<path class="st2" d="M70.25,36.49c0,0.99-0.36,1.77-1.07,2.34c-0.71,0.57-1.71,0.86-2.98,0.86c-1.17,0-2.21-0.22-3.11-0.66v-2.16
		c0.74,0.33,1.37,0.56,1.88,0.7c0.51,0.14,0.98,0.2,1.41,0.2c0.51,0,0.9-0.1,1.18-0.29c0.27-0.2,0.41-0.49,0.41-0.87
		c0-0.21-0.06-0.41-0.18-0.57c-0.12-0.17-0.3-0.33-0.53-0.48c-0.23-0.16-0.71-0.4-1.42-0.74c-0.67-0.32-1.17-0.62-1.51-0.91
		c-0.34-0.29-0.6-0.63-0.8-1.01c-0.2-0.39-0.3-0.84-0.3-1.35c0-0.97,0.33-1.73,0.99-2.29c0.66-0.55,1.57-0.83,2.73-0.83
		c0.57,0,1.12,0.07,1.63,0.2c0.52,0.13,1.06,0.33,1.63,0.57l-0.75,1.81c-0.59-0.24-1.07-0.41-1.45-0.5
		c-0.38-0.09-0.76-0.14-1.13-0.14c-0.44,0-0.78,0.1-1.01,0.31c-0.24,0.21-0.35,0.47-0.35,0.8c0,0.21,0.05,0.38,0.14,0.54
		s0.25,0.3,0.45,0.44c0.21,0.14,0.7,0.4,1.48,0.77c1.03,0.49,1.73,0.98,2.11,1.47C70.06,35.17,70.25,35.78,70.25,36.49"/>
	<polygon class="st2" points="76.51,39.54 74.18,39.54 74.18,30.51 71.19,30.51 71.19,28.57 79.49,28.57 79.49,30.51 76.51,30.51 	
		"/>
	<rect x="81.21" y="28.57" class="st2" width="2.33" height="10.97"/>
	<polygon class="st2" points="90.57,39.54 88.24,39.54 88.24,30.51 85.26,30.51 85.26,28.57 93.56,28.57 93.56,30.51 90.57,30.51 	
		"/>
	<path class="st2" d="M104.22,28.57v7.1c0,0.81-0.18,1.52-0.54,2.13c-0.36,0.61-0.89,1.08-1.57,1.4c-0.69,0.32-1.5,0.49-2.43,0.49
		c-1.41,0-2.51-0.36-3.29-1.08c-0.78-0.72-1.17-1.71-1.17-2.97v-7.07h2.32v6.71c0,0.84,0.17,1.47,0.51,1.86
		c0.34,0.4,0.9,0.59,1.69,0.59c0.76,0,1.31-0.2,1.66-0.6c0.34-0.4,0.51-1.02,0.51-1.87v-6.7H104.22z"/>
	<polygon class="st2" points="111.18,39.54 108.85,39.54 108.85,30.51 105.86,30.51 105.86,28.57 114.16,28.57 114.16,30.51 
		111.18,30.51 	"/>
	<path class="st2" d="M125.85,34.04c0,1.82-0.45,3.21-1.35,4.19c-0.9,0.97-2.19,1.46-3.88,1.46s-2.98-0.49-3.88-1.46
		c-0.9-0.98-1.35-2.38-1.35-4.2c0-1.82,0.45-3.22,1.36-4.18c0.9-0.96,2.2-1.44,3.89-1.44c1.69,0,2.98,0.49,3.87,1.45
		C125.4,30.82,125.85,32.22,125.85,34.04 M117.83,34.04c0,1.23,0.23,2.15,0.7,2.77c0.47,0.62,1.16,0.93,2.09,0.93
		c1.86,0,2.79-1.23,2.79-3.7c0-2.47-0.92-3.71-2.77-3.71c-0.93,0-1.63,0.31-2.1,0.93C118.07,31.89,117.83,32.81,117.83,34.04"/>
	<polygon class="st2" points="134.48,39.54 132.19,39.54 132.19,28.57 138.48,28.57 138.48,30.48 134.48,30.48 134.48,33.3 
		138.2,33.3 138.2,35.2 134.48,35.2 	"/>
	<polygon class="st2" points="146.99,39.54 140.66,39.54 140.66,28.57 146.99,28.57 146.99,30.48 142.99,30.48 142.99,32.88 
		146.71,32.88 146.71,34.79 142.99,34.79 142.99,37.62 146.99,37.62 	"/>
	<path class="st2" d="M158.42,33.95c0,1.81-0.51,3.19-1.54,4.15c-1.03,0.96-2.52,1.44-4.46,1.44h-3.11V28.57h3.45
		c1.79,0,3.19,0.47,4.18,1.42C157.93,30.93,158.42,32.25,158.42,33.95 M156,34.01c0-2.36-1.04-3.53-3.13-3.53h-1.24v7.14h1
		C154.88,37.62,156,36.41,156,34.01"/>
	<polygon class="st2" points="167.06,39.54 160.73,39.54 160.73,28.57 167.06,28.57 167.06,30.48 163.06,30.48 163.06,32.88 
		166.78,32.88 166.78,34.79 163.06,34.79 163.06,37.62 167.06,37.62 	"/>
	<path class="st2" d="M171.71,35.33v4.21h-2.33V28.57h3.2c1.49,0,2.6,0.27,3.31,0.81c0.72,0.54,1.07,1.37,1.07,2.47
		c0,0.64-0.18,1.22-0.53,1.72c-0.36,0.5-0.86,0.9-1.51,1.18c1.65,2.47,2.73,4.06,3.23,4.78h-2.58l-2.62-4.21H171.71z M171.71,33.44
		h0.75c0.74,0,1.28-0.12,1.63-0.37c0.35-0.25,0.53-0.63,0.53-1.16c0-0.52-0.18-0.89-0.54-1.11c-0.36-0.22-0.91-0.33-1.66-0.33h-0.71
		V33.44z"/>
	<path class="st2" d="M186.29,39.54l-0.8-2.61h-4.01l-0.8,2.61h-2.51l3.88-11.01h2.85l3.89,11.01H186.29z M184.94,34.98
		c-0.74-2.36-1.15-3.7-1.24-4.01c-0.09-0.31-0.16-0.55-0.2-0.74c-0.17,0.64-0.64,2.22-1.42,4.75H184.94z"/>
	<polygon class="st2" points="190.22,39.54 190.22,28.57 192.54,28.57 192.54,37.62 197,37.62 197,39.54 	"/>
</g>
</svg>
