<?xml version="1.0" encoding="utf-8"?>
<!-- Generator: Adobe Illustrator 26.0.1, SVG Export Plug-In . SVG Version: 6.00 Build 0)  -->
<svg version="1.1" id="Camada_1" xmlns="http://www.w3.org/2000/svg" xmlns:xlink="http://www.w3.org/1999/xlink" x="0px" y="0px"
	 viewBox="0 0 186 61" style="enable-background:new 0 0 186 61;" xml:space="preserve">
<style type="text/css">
	.st0{fill-rule:evenodd;clip-rule:evenodd;fill:#FFFFFF;}
	.st1{fill:#FFFFFF;}
</style>
<g>
	<polyline class="st0" points="8.55,30.47 8.54,17.75 8.54,7.68 15.83,7.68 15.83,30.47 	"/>
	<polyline class="st0" points="17.06,34.36 17.05,17.69 17.05,3.98 24.34,3.98 24.34,34.36 	"/>
	<g>
		<path class="st1" d="M70.48,60.72c-1.27-0.65-2.39-0.97-3.35-0.97c-0.28,0-0.69,0.06-1.21,0.17c-0.52,0.11-1.07,0.23-1.63,0.34
			c-0.57,0.11-1.11,0.23-1.63,0.34s-0.93,0.17-1.21,0.17c-1.05,0-2.01-0.27-2.9-0.8s-1.67-1.25-2.33-2.14s-1.19-1.9-1.57-3.03
			c-0.38-1.13-0.57-2.28-0.57-3.45V36.74c0-1.33,0.22-2.56,0.66-3.69c0.44-1.13,1.04-2.12,1.8-2.96s1.65-1.5,2.67-1.99
			s2.1-0.73,3.26-0.73c0.11,0,0.23,0,0.34,0s0.23,0.02,0.34,0.05v-9.08h7.33V60.72z M63.15,36.74c0-0.65-0.28-0.97-0.85-0.97
			c-0.59,0-0.89,0.32-0.89,0.97v14.61c0,0.65,0.3,0.97,0.89,0.97c0.56,0,0.85-0.32,0.85-0.97V36.74z"/>
		<path class="st1" d="M32.82,60.88h-7.29V0.12h7.29V60.88z"/>
		<path class="st1" d="M51.79,60.88h-7.44V36.84c0-0.65-0.3-0.97-0.9-0.97c-0.6,0-0.9,0.32-0.9,0.97v24.04h-7.44V27.45
			c1.58,0.65,2.77,0.97,3.57,0.97c0.11,0,0.38-0.04,0.8-0.12s1-0.25,1.74-0.51c0.32-0.1,0.66-0.18,1.03-0.24s0.77-0.1,1.2-0.1
			c1.12,0,2.18,0.25,3.18,0.75s1.89,1.18,2.67,2.02c0.77,0.84,1.38,1.83,1.83,2.97c0.44,1.14,0.67,2.35,0.67,3.65v24.04H51.79z"/>
		<path class="st1" d="M80.05,60.88h-7.29V27.45h7.29V60.88z"/>
		<path class="st1" d="M98.81,51.49c0,1.27-0.22,2.47-0.66,3.63c-0.44,1.15-1.03,2.15-1.77,2.99s-1.6,1.52-2.6,2.02
			c-0.99,0.5-2.06,0.75-3.19,0.75c-1.14,0-2.21-0.24-3.21-0.73c-1.01-0.49-1.88-1.16-2.62-2.02c-0.74-0.86-1.33-1.86-1.77-2.99
			c-0.44-1.14-0.66-2.35-0.66-3.65V36.84c0-1.3,0.22-2.51,0.66-3.65c0.44-1.14,1.04-2.12,1.79-2.97c0.75-0.84,1.63-1.52,2.64-2.02
			s2.06-0.75,3.17-0.75s2.16,0.25,3.15,0.75s1.87,1.18,2.62,2.02s1.35,1.83,1.79,2.97s0.66,2.35,0.66,3.65v4.92h-7.36v-4.92
			c0-0.65-0.28-0.97-0.85-0.97c-0.6,0-0.89,0.32-0.89,0.97v14.65c0,0.65,0.3,0.97,0.89,0.97c0.57,0,0.85-0.32,0.85-0.97v-5.84h7.36
			C98.81,45.65,98.81,51.49,98.81,51.49z"/>
		<path class="st1" d="M121.36,56.65c0,1.17-0.32,2.15-0.95,2.94c-0.63,0.8-1.47,1.19-2.52,1.19c-1.68,0-2.7-0.83-3.06-2.48
			c-1.08,1.72-2.76,2.58-5.04,2.58c-1.2,0-2.33-0.24-3.38-0.73c-1.05-0.49-1.97-1.16-2.77-2.02c-0.8-0.86-1.42-1.86-1.87-2.99
			c-0.45-1.14-0.68-2.35-0.68-3.65c0-2.5,0.83-4.62,2.48-6.38c0.33-0.36,0.89-0.79,1.67-1.31s1.58-1.03,2.39-1.53
			s1.52-0.96,2.14-1.36c0.61-0.41,0.92-0.69,0.92-0.85v-3.21c0-0.78-0.32-1.17-0.95-1.17s-0.95,0.63-0.95,1.9v0.73
			c0.03,0.16,0.05,0.28,0.05,0.36s0,0.14,0,0.17h-7.25v-2c0-2.85,0.7-5.13,2.12-6.84c1.41-1.7,3.44-2.56,6.08-2.56
			c1.17,0,2.29,0.25,3.35,0.75c1.07,0.5,1.99,1.18,2.77,2.02s1.4,1.84,1.87,2.99s0.7,2.36,0.7,3.63v15.62h2.88L121.36,56.65
			L121.36,56.65z M110.69,45.6c-1.23,0.88-1.85,1.87-1.85,2.97v2.92c0,0.65,0.32,0.97,0.95,0.97c0.6,0,0.9-0.32,0.9-0.97V45.6z"/>
		<path class="st1" d="M130.94,60.88h-7.29V27.45h7.29V60.88z"/>
		<path class="st1" d="M148.29,34.2h-7.76v7.02h4.09v6.75h-4.09v12.91h-7.3V27.45h15.07L148.29,34.2L148.29,34.2z"/>
		<g>
			<path class="st1" d="M167.15,53.2c0,0.96-0.21,1.91-0.64,2.83s-1.01,1.74-1.75,2.46c-0.74,0.72-1.59,1.29-2.56,1.74
				c-0.97,0.44-2.01,0.66-3.12,0.66h-8.5V27.45h8.5c1.08,0,2.11,0.22,3.07,0.66c0.97,0.44,1.82,1.02,2.56,1.74
				c0.74,0.72,1.33,1.53,1.77,2.46c0.44,0.92,0.66,1.87,0.66,2.83v4.6c0,0.94-0.27,1.82-0.81,2.65s-1.25,1.44-2.13,1.83
				c0.43,0.16,0.82,0.39,1.17,0.7c0.36,0.31,0.67,0.66,0.94,1.05s0.48,0.81,0.62,1.27s0.21,0.92,0.21,1.38L167.15,53.2L167.15,53.2z
				 M159.76,35.76c0-1.04-0.47-1.56-1.41-1.56h-0.38v6.59h0.38c0.4,0,0.73-0.18,1-0.53s0.41-0.71,0.41-1.07V35.76z M159.76,49.14
				c0-0.34-0.14-0.68-0.41-1.03s-0.61-0.53-1-0.53h-0.38v6.55h0.38c0.94,0,1.41-0.51,1.41-1.52V49.14z"/>
			<path class="st1" d="M186,60.88h-7.29l-0.28-3.74h-2.31l-0.44,3.74h-7.32l5.26-33.44h7.29L186,60.88z M178.22,55.43l-0.94-11.95
				l-1.05,11.95H178.22z"/>
		</g>
	</g>
	<path class="st0" d="M7.33,15.16v42.08c0,2.01-1.63,3.65-3.65,3.65l0,0c-2.01,0-3.65-1.63-3.65-3.65V15.16
		c0-2.01,1.63-3.65,3.65-3.65l0,0C5.69,11.51,7.33,13.14,7.33,15.16z"/>
	<g>
		<path class="st0" d="M21.91,60.88H3.68c-2.01,0-3.65-1.63-3.65-3.65l0,0c0-2.01,1.63-3.65,3.65-3.65h18.23
			c2.01,0,3.65,1.63,3.65,3.65l0,0C25.56,59.25,23.92,60.88,21.91,60.88z"/>
		<path class="st0" d="M29.17,36H3.65C1.63,36,0,34.37,0,32.36l0,0c0-2.01,1.63-3.65,3.65-3.65h25.52c2.01,0,3.65,1.63,3.65,3.65
			l0,0C32.81,34.37,31.18,36,29.17,36z"/>
		<path class="st0" d="M26.78,44.3H3.69c-2.01,0-3.65-1.63-3.65-3.65l0,0c0-2.01,1.63-3.65,3.65-3.65h23.09
			c2.01,0,3.65,1.63,3.65,3.65l0,0C30.43,42.66,28.8,44.3,26.78,44.3z"/>
		<path class="st0" d="M24.4,52.59H3.74c-2.01,0-3.65-1.63-3.65-3.65l0,0c0-2.01,1.63-3.65,3.65-3.65H24.4
			c2.01,0,3.65,1.63,3.65,3.65l0,0C28.04,50.96,26.41,52.59,24.4,52.59z"/>
	</g>
</g>
</svg>
