<?xml version="1.0" encoding="utf-8"?>
<!-- Generator: Adobe Illustrator 26.0.1, SVG Export Plug-In . SVG Version: 6.00 Build 0)  -->
<svg version="1.1" id="Camada_1" xmlns="http://www.w3.org/2000/svg" xmlns:xlink="http://www.w3.org/1999/xlink" x="0px" y="0px"
	 viewBox="0 0 744 144" style="enable-background:new 0 0 744 144;" xml:space="preserve">
<style type="text/css">
	.st0{fill:#FFFFFF;}
	.st1{fill:#2F9D40;}
	.st2{fill:#CD181F;}
</style>
<g>
	<g>
		<rect x="125.36" y="46.31" class="st0" width="4.89" height="23.02"/>
		<g>
			<path class="st0" d="M156.57,69.33h-6.21l-10.03-17.41h-0.14c0.2,3.08,0.3,5.27,0.3,6.58v10.83h-4.37V46.31h6.17l10.01,17.24
				h0.11c-0.16-2.99-0.24-5.11-0.24-6.34v-10.9h4.4L156.57,69.33L156.57,69.33z"/>
			<path class="st0" d="M176.05,62.94c0,2.08-0.75,3.72-2.25,4.91c-1.5,1.2-3.58,1.79-6.25,1.79c-2.46,0-4.64-0.46-6.53-1.39v-4.53
				c1.56,0.69,2.87,1.18,3.95,1.46s2.06,0.42,2.96,0.42c1.07,0,1.9-0.2,2.47-0.61s0.86-1.02,0.86-1.83c0-0.45-0.13-0.85-0.38-1.2
				c-0.25-0.35-0.62-0.69-1.11-1.02s-1.49-0.85-2.99-1.56c-1.41-0.66-2.47-1.3-3.17-1.91s-1.27-1.32-1.69-2.12
				c-0.42-0.81-0.63-1.75-0.63-2.83c0-2.04,0.69-3.64,2.07-4.8c1.38-1.17,3.29-1.75,5.73-1.75c1.2,0,2.34,0.14,3.43,0.43
				c1.09,0.28,2.23,0.68,3.42,1.2l-1.58,3.79c-1.23-0.5-2.25-0.85-3.05-1.05s-1.6-0.3-2.37-0.3c-0.93,0-1.63,0.22-2.13,0.65
				c-0.49,0.43-0.74,0.99-0.74,1.68c0,0.43,0.1,0.81,0.3,1.12c0.2,0.32,0.52,0.63,0.96,0.93s1.47,0.84,3.1,1.61
				c2.15,1.03,3.63,2.06,4.43,3.09C175.65,60.17,176.05,61.44,176.05,62.94"/>
			<polygon class="st0" points="189.19,69.33 184.3,69.33 184.3,50.38 178.04,50.38 178.04,46.31 195.45,46.31 195.45,50.38 
				189.19,50.38 			"/>
			<rect x="199.06" y="46.31" class="st0" width="4.89" height="23.02"/>
			<polygon class="st0" points="218.72,69.33 213.83,69.33 213.83,50.38 207.57,50.38 207.57,46.31 224.98,46.31 224.98,50.38 
				218.72,50.38 			"/>
			<path class="st0" d="M247.36,46.31V61.2c0,1.7-0.38,3.19-1.14,4.47s-1.86,2.26-3.3,2.94s-3.14,1.02-5.11,1.02
				c-2.96,0-5.27-0.76-6.91-2.27c-1.64-1.52-2.46-3.59-2.46-6.23V46.31h4.87V60.4c0,1.77,0.36,3.08,1.07,3.91s1.9,1.24,3.55,1.24
				c1.6,0,2.76-0.42,3.48-1.25c0.72-0.84,1.08-2.14,1.08-3.93V46.31H247.36z"/>
			<polygon class="st0" points="261.96,69.33 257.07,69.33 257.07,50.38 250.81,50.38 250.81,46.31 268.23,46.31 268.23,50.38 
				261.96,50.38 			"/>
			<path class="st0" d="M292.77,57.79c0,3.81-0.95,6.74-2.84,8.79c-1.89,2.05-4.61,3.07-8.14,3.07c-3.53,0-6.25-1.02-8.14-3.07
				s-2.84-4.99-2.84-8.82s0.95-6.76,2.85-8.78c1.9-2.02,4.62-3.03,8.16-3.03s6.25,1.02,8.13,3.06
				C291.83,51.04,292.77,53.97,292.77,57.79 M275.94,57.79c0,2.57,0.49,4.51,1.47,5.81s2.44,1.95,4.39,1.95
				c3.9,0,5.85-2.59,5.85-7.76c0-5.18-1.94-7.78-5.82-7.78c-1.95,0-3.41,0.65-4.4,1.96C276.43,53.28,275.94,55.22,275.94,57.79"/>
			<polygon class="st0" points="310.88,69.33 306.06,69.33 306.06,46.31 319.28,46.31 319.28,50.31 310.88,50.31 310.88,56.25 
				318.7,56.25 318.7,60.23 310.88,60.23 			"/>
			<polygon class="st0" points="337.14,69.33 323.86,69.33 323.86,46.31 337.14,46.31 337.14,50.31 328.75,50.31 328.75,55.37 
				336.55,55.37 336.55,59.37 328.75,59.37 328.75,65.3 337.14,65.3 			"/>
			<path class="st0" d="M361.14,57.6c0,3.79-1.08,6.69-3.24,8.71c-2.16,2.01-5.28,3.02-9.36,3.02h-6.53V46.31h7.24
				c3.76,0,6.69,0.99,8.77,2.98C360.1,51.27,361.14,54.04,361.14,57.6 M356.06,57.73c0-4.94-2.19-7.42-6.56-7.42h-2.6V65.3h2.1
				C353.71,65.3,356.06,62.78,356.06,57.73"/>
			<polygon class="st0" points="379.27,69.33 365.99,69.33 365.99,46.31 379.27,46.31 379.27,50.31 370.87,50.31 370.87,55.37 
				378.68,55.37 378.68,59.37 370.87,59.37 370.87,65.3 379.27,65.3 			"/>
			<path class="st0" d="M389.03,60.5v8.83h-4.89V46.31h6.72c3.13,0,5.45,0.57,6.95,1.71s2.26,2.87,2.26,5.19
				c0,1.35-0.37,2.56-1.12,3.61s-1.8,1.88-3.17,2.48c3.47,5.18,5.73,8.52,6.78,10.03h-5.43l-5.5-8.83H389.03z M389.03,56.53h1.58
				c1.55,0,2.69-0.26,3.42-0.77c0.73-0.51,1.1-1.32,1.1-2.43c0-1.09-0.38-1.87-1.13-2.33s-1.92-0.69-3.49-0.69h-1.48V56.53z"/>
			<path class="st0" d="M419.64,69.33l-1.67-5.48h-8.41l-1.67,5.48h-5.27l8.14-23.11h5.98l8.17,23.11H419.64z M416.81,59.76
				c-1.55-4.96-2.42-7.77-2.61-8.42c-0.2-0.65-0.33-1.17-0.42-1.54c-0.35,1.34-1.34,4.66-2.98,9.97L416.81,59.76L416.81,59.76z"/>
			<polygon class="st0" points="427.88,69.33 427.88,46.31 432.77,46.31 432.77,65.3 442.12,65.3 442.12,69.33 			"/>
			<path class="st0" d="M144.49,96.3c0,3.79-1.08,6.69-3.24,8.71c-2.16,2.01-5.28,3.02-9.36,3.02h-6.53V85.01h7.24
				c3.76,0,6.69,0.99,8.77,2.98C143.45,89.97,144.49,92.74,144.49,96.3 M139.41,96.42c0-4.94-2.19-7.42-6.56-7.42h-2.6v15h2.1
				C137.05,104,139.41,101.47,139.41,96.42"/>
			<polygon class="st0" points="162.61,108.03 149.33,108.03 149.33,85.01 162.61,85.01 162.61,89.01 154.22,89.01 154.22,94.06 
				162.03,94.06 162.03,98.06 154.22,98.06 154.22,104 162.61,104 			"/>
			<polygon class="st0" points="189.22,108.03 175.94,108.03 175.94,85.01 189.22,85.01 189.22,89.01 180.83,89.01 180.83,94.06 
				188.64,94.06 188.64,98.06 180.83,98.06 180.83,104 189.22,104 			"/>
			<path class="st0" d="M213.23,96.3c0,3.79-1.08,6.69-3.24,8.71c-2.16,2.01-5.28,3.02-9.36,3.02h-6.53V85.01h7.24
				c3.76,0,6.69,0.99,8.77,2.98C212.18,89.97,213.23,92.74,213.23,96.3 M208.15,96.42c0-4.94-2.19-7.42-6.56-7.42h-2.6v15h2.1
				C205.79,104,208.15,101.47,208.15,96.42"/>
			<path class="st0" d="M236.84,85.01v14.9c0,1.7-0.38,3.19-1.14,4.47s-1.86,2.26-3.3,2.94s-3.14,1.02-5.11,1.02
				c-2.96,0-5.27-0.76-6.91-2.27c-1.64-1.52-2.46-3.59-2.46-6.23V85.01h4.87V99.1c0,1.77,0.36,3.07,1.07,3.9s1.9,1.24,3.55,1.24
				c1.6,0,2.76-0.42,3.48-1.25s1.08-2.14,1.08-3.93V85.01H236.84z"/>
			<path class="st0" d="M252.34,88.74c-1.84,0-3.27,0.69-4.27,2.07c-1.01,1.38-1.51,3.3-1.51,5.77c0,5.13,1.93,7.7,5.79,7.7
				c1.62,0,3.58-0.4,5.88-1.21v4.09c-1.89,0.79-4.01,1.18-6.34,1.18c-3.35,0-5.92-1.01-7.7-3.05c-1.78-2.03-2.66-4.95-2.66-8.75
				c0-2.39,0.44-4.49,1.31-6.29s2.13-3.18,3.76-4.14c1.64-0.96,3.55-1.44,5.75-1.44c2.24,0,4.49,0.54,6.75,1.62l-1.58,3.97
				c-0.86-0.41-1.73-0.76-2.6-1.07C254.04,88.89,253.18,88.74,252.34,88.74"/>
			<path class="st0" d="M277.31,108.03l-1.67-5.48h-8.41l-1.67,5.48h-5.27l8.14-23.11h5.98l8.17,23.11H277.31z M274.47,98.45
				c-1.55-4.96-2.42-7.77-2.61-8.42c-0.2-0.65-0.33-1.17-0.42-1.54c-0.35,1.34-1.34,4.67-2.98,9.97h6.01V98.45z"/>
			<path class="st0" d="M295.34,88.74c-1.84,0-3.26,0.69-4.27,2.07c-1.01,1.38-1.51,3.3-1.51,5.77c0,5.13,1.93,7.7,5.79,7.7
				c1.62,0,3.58-0.4,5.88-1.21v4.09c-1.89,0.79-4.01,1.18-6.34,1.18c-3.35,0-5.92-1.01-7.7-3.05c-1.78-2.03-2.67-4.95-2.67-8.75
				c0-2.39,0.44-4.49,1.31-6.29s2.13-3.18,3.76-4.14s3.55-1.44,5.75-1.44c2.24,0,4.49,0.54,6.75,1.62l-1.58,3.97
				c-0.86-0.41-1.73-0.77-2.6-1.07C297.04,88.89,296.18,88.74,295.34,88.74 M297.77,111.96c0,1.34-0.4,2.31-1.19,2.91
				s-2.02,0.9-3.68,0.9c-0.82,0-1.59-0.11-2.3-0.33v-2.64c0.28,0.07,0.67,0.15,1.14,0.22c0.48,0.07,0.85,0.11,1.11,0.11
				c0.76,0,1.14-0.33,1.14-0.98c0-0.87-0.87-1.44-2.62-1.7l1.23-2.43h3.04l-0.43,0.96c0.78,0.25,1.4,0.64,1.86,1.17
				C297.54,110.69,297.77,111.29,297.77,111.96"/>
			<path class="st0" d="M320.31,108.03l-1.67-5.48h-8.41l-1.67,5.48h-5.27l8.14-23.11h5.98l8.17,23.11H320.31z M311.85,81.51
				c-0.33,0-0.64,0.14-0.94,0.42s-0.52,0.7-0.65,1.27h-2.35c0.12-1.52,0.55-2.71,1.3-3.57s1.75-1.29,2.99-1.29
				c0.43,0,0.85,0.09,1.27,0.26c0.42,0.17,0.83,0.36,1.23,0.57c0.4,0.21,0.8,0.39,1.19,0.56s0.77,0.25,1.15,0.25
				c0.33,0,0.64-0.14,0.94-0.41c0.3-0.27,0.52-0.69,0.65-1.26h2.35c-0.12,1.52-0.56,2.71-1.32,3.57s-1.75,1.29-2.97,1.29
				c-0.43,0-0.85-0.09-1.27-0.26c-0.42-0.17-0.83-0.36-1.23-0.57c-0.4-0.21-0.8-0.39-1.19-0.57
				C312.61,81.6,312.23,81.51,311.85,81.51 M317.47,98.45c-1.55-4.96-2.42-7.77-2.61-8.42c-0.2-0.65-0.33-1.17-0.42-1.54
				c-0.35,1.34-1.34,4.67-2.98,9.97h6.01V98.45z"/>
			<path class="st0" d="M349.47,96.48c0,3.81-0.95,6.74-2.84,8.79c-1.89,2.05-4.61,3.07-8.14,3.07c-3.53,0-6.25-1.02-8.14-3.07
				s-2.84-4.99-2.84-8.82s0.95-6.76,2.85-8.78s4.62-3.03,8.16-3.03s6.25,1.02,8.13,3.05C348.53,89.74,349.47,92.66,349.47,96.48
				 M332.64,96.48c0,2.57,0.49,4.51,1.47,5.81c0.98,1.3,2.44,1.95,4.39,1.95c3.9,0,5.85-2.59,5.85-7.76c0-5.18-1.94-7.78-5.82-7.78
				c-1.95,0-3.41,0.65-4.4,1.96C333.13,91.97,332.64,93.91,332.64,96.48"/>
			<path class="st0" d="M358.65,104.64c-0.55,2.12-1.47,4.63-2.78,7.54h-3.47c0.68-2.79,1.21-5.43,1.59-7.9h4.42L358.65,104.64z"/>
			<path class="st0" d="M381.99,88.74c-1.84,0-3.27,0.69-4.27,2.07c-1.01,1.38-1.51,3.3-1.51,5.77c0,5.13,1.93,7.7,5.79,7.7
				c1.62,0,3.58-0.4,5.88-1.21v4.09c-1.89,0.79-4.01,1.18-6.34,1.18c-3.35,0-5.92-1.01-7.7-3.05c-1.78-2.03-2.66-4.95-2.66-8.75
				c0-2.39,0.43-4.49,1.31-6.29c0.87-1.8,2.13-3.18,3.76-4.14c1.64-0.96,3.55-1.44,5.75-1.44c2.24,0,4.49,0.54,6.75,1.62l-1.58,3.97
				c-0.86-0.41-1.73-0.76-2.6-1.07C383.69,88.89,382.84,88.74,381.99,88.74"/>
			<rect x="392.85" y="85.01" class="st0" width="4.89" height="23.02"/>
			<path class="st0" d="M413.97,83.17c-1.65-0.98-2.88-1.9-3.69-2.77c-0.82,0.85-2.03,1.77-3.61,2.77h-3.2v-0.42
				c1.99-1.99,3.33-3.56,4.04-4.74h5.63c0.33,0.54,0.89,1.29,1.7,2.23c0.8,0.94,1.58,1.78,2.34,2.51v0.42
				C417.18,83.17,413.97,83.17,413.97,83.17z M416.88,108.03H403.6V85.01h13.28v4h-8.39v5.06h7.81v4h-7.81V104h8.39V108.03z"/>
			<path class="st0" d="M442.21,108.03H436l-10.03-17.41h-0.14c0.2,3.07,0.3,5.27,0.3,6.58v10.83h-4.37V85.01h6.17l10.02,17.24h0.11
				c-0.16-2.99-0.24-5.11-0.24-6.34v-10.9h4.4L442.21,108.03L442.21,108.03z"/>
			<path class="st0" d="M457.88,88.74c-1.84,0-3.27,0.69-4.27,2.07c-1.01,1.38-1.51,3.3-1.51,5.77c0,5.13,1.93,7.7,5.79,7.7
				c1.62,0,3.58-0.4,5.88-1.21v4.09c-1.89,0.79-4.01,1.18-6.34,1.18c-3.35,0-5.92-1.01-7.7-3.05c-1.78-2.03-2.66-4.95-2.66-8.75
				c0-2.39,0.43-4.49,1.31-6.29c0.87-1.8,2.13-3.18,3.76-4.14c1.64-0.96,3.55-1.44,5.75-1.44c2.24,0,4.49,0.54,6.75,1.62l-1.58,3.97
				c-0.86-0.41-1.73-0.76-2.6-1.07C459.57,88.89,458.72,88.74,457.88,88.74"/>
			<rect x="468.73" y="85.01" class="st0" width="4.89" height="23.02"/>
			<path class="st0" d="M493.6,108.03l-1.67-5.48h-8.41l-1.67,5.48h-5.27l8.14-23.11h5.98l8.17,23.11H493.6z M490.76,98.45
				c-1.55-4.96-2.42-7.77-2.61-8.42c-0.2-0.65-0.33-1.17-0.42-1.54c-0.35,1.34-1.34,4.67-2.98,9.97h6.01V98.45z"/>
			<polygon class="st0" points="523.57,108.03 510.29,108.03 510.29,85.01 523.57,85.01 523.57,89.01 515.18,89.01 515.18,94.06 
				522.99,94.06 522.99,98.06 515.18,98.06 515.18,104 523.57,104 			"/>
			<polygon class="st0" points="545.8,108.03 540.91,108.03 540.91,89.07 534.65,89.07 534.65,85.01 552.06,85.01 552.06,89.07 
				545.8,89.07 			"/>
			<polygon class="st0" points="568.95,108.03 555.67,108.03 555.67,85.01 568.95,85.01 568.95,89.01 560.56,89.01 560.56,94.06 
				568.37,94.06 568.37,98.06 560.56,98.06 560.56,104 568.95,104 			"/>
			<path class="st0" d="M583.62,88.74c-1.84,0-3.27,0.69-4.27,2.07c-1.01,1.38-1.51,3.3-1.51,5.77c0,5.13,1.93,7.7,5.79,7.7
				c1.62,0,3.58-0.4,5.88-1.21v4.09c-1.89,0.79-4.01,1.18-6.34,1.18c-3.35,0-5.92-1.01-7.7-3.05c-1.78-2.03-2.66-4.95-2.66-8.75
				c0-2.39,0.43-4.49,1.31-6.29c0.87-1.8,2.13-3.18,3.76-4.14c1.64-0.96,3.55-1.44,5.75-1.44c2.24,0,4.49,0.54,6.75,1.62l-1.58,3.97
				c-0.86-0.41-1.73-0.76-2.6-1.07C585.32,88.89,584.46,88.74,583.62,88.74"/>
			<path class="st0" d="M614.93,108.03h-6.21l-10.03-17.41h-0.14c0.2,3.07,0.3,5.27,0.3,6.58v10.83h-4.37V85.01h6.17l10.02,17.24
				h0.11c-0.16-2.99-0.24-5.11-0.24-6.34v-10.9h4.4L614.93,108.03L614.93,108.03z"/>
			<path class="st0" d="M641.72,96.48c0,3.81-0.95,6.74-2.84,8.79s-4.6,3.07-8.14,3.07c-3.53,0-6.25-1.02-8.14-3.07
				s-2.84-4.99-2.84-8.82s0.95-6.76,2.85-8.78c1.9-2.02,4.62-3.03,8.16-3.03s6.25,1.02,8.13,3.05
				C640.79,89.74,641.72,92.66,641.72,96.48 M624.9,96.48c0,2.57,0.49,4.51,1.47,5.81c0.98,1.3,2.44,1.95,4.38,1.95
				c3.9,0,5.85-2.59,5.85-7.76c0-5.18-1.94-7.78-5.82-7.78c-1.95,0-3.41,0.65-4.4,1.96C625.39,91.97,624.9,93.91,624.9,96.48"/>
			<polygon class="st0" points="646.57,108.03 646.57,85.01 651.46,85.01 651.46,104 660.81,104 660.81,108.03 			"/>
			<path class="st0" d="M685.81,96.48c0,3.81-0.95,6.74-2.84,8.79s-4.6,3.07-8.14,3.07c-3.53,0-6.25-1.02-8.14-3.07
				s-2.84-4.99-2.84-8.82s0.95-6.76,2.85-8.78c1.9-2.02,4.62-3.03,8.16-3.03s6.25,1.02,8.13,3.05
				C684.87,89.74,685.81,92.66,685.81,96.48 M668.98,96.48c0,2.57,0.49,4.51,1.47,5.81c0.98,1.3,2.44,1.95,4.38,1.95
				c3.9,0,5.85-2.59,5.85-7.76c0-5.18-1.94-7.78-5.82-7.78c-1.95,0-3.41,0.65-4.4,1.96C669.47,91.97,668.98,93.91,668.98,96.48"/>
			<path class="st0" d="M699.41,95.1h9.15v11.93c-1.48,0.48-2.88,0.82-4.19,1.01s-2.65,0.29-4.01,0.29c-3.48,0-6.14-1.02-7.97-3.06
				c-1.84-2.04-2.75-4.97-2.75-8.79c0-3.71,1.06-6.61,3.19-8.69s5.08-3.12,8.86-3.12c2.37,0,4.65,0.47,6.84,1.42L706.9,90
				c-1.68-0.84-3.43-1.26-5.25-1.26c-2.11,0-3.81,0.71-5.08,2.13s-1.91,3.32-1.91,5.71c0,2.5,0.51,4.41,1.54,5.72
				c1.02,1.32,2.52,1.98,4.47,1.98c1.02,0,2.05-0.1,3.11-0.32v-4.8h-4.37V95.1z"/>
			<rect x="714.11" y="85.01" class="st0" width="4.89" height="23.02"/>
			<path class="st0" d="M738.98,108.03l-1.67-5.48h-8.41l-1.67,5.48h-5.27l8.14-23.11h5.98l8.17,23.11H738.98z M736.14,98.45
				c-1.55-4.96-2.42-7.77-2.61-8.42c-0.2-0.65-0.33-1.17-0.42-1.54c-0.35,1.34-1.34,4.67-2.98,9.97h6.01V98.45z"/>
		</g>
		<g>
			<path class="st1" d="M68.64,29.39c0,1.66-1.35,3-3,3H40.82c-1.66,0-3-1.34-3-3V4.58c0-1.66,1.35-3,3-3h24.81c1.66,0,3,1.34,3,3
				v24.81H68.64z"/>
			<path class="st1" d="M105.61,29.39c0,1.66-1.34,3-3,3H77.8c-1.66,0-3-1.34-3-3V4.58c0-1.66,1.34-3,3-3h24.81c1.66,0,3,1.34,3,3
				V29.39z"/>
			<path class="st1" d="M105.61,103.34c0,1.66-1.34,3-3,3H77.8c-1.66,0-3-1.34-3-3V78.52c0-1.66,1.34-3,3-3h24.81c1.66,0,3,1.34,3,3
				V103.34z"/>
			<path class="st1" d="M31.67,66.34c0,1.66-1.35,3-3,3H3.85c-1.66,0-3-1.34-3-3V41.52c0-1.66,1.34-3,3-3h24.82c1.65,0,3,1.35,3,3
				V66.34z"/>
			<path class="st1" d="M68.64,66.34c0,1.66-1.35,3-3,3H40.82c-1.66,0-3-1.34-3-3V41.52c0-1.66,1.35-3,3-3h24.81c1.66,0,3,1.35,3,3
				v24.82H68.64z"/>
			<path class="st1" d="M31.67,103.34c0,1.66-1.35,3-3,3H3.85c-1.66,0-3-1.34-3-3V78.52c0-1.66,1.34-3,3-3h24.82c1.65,0,3,1.34,3,3
				V103.34z"/>
			<path class="st1" d="M68.64,103.34c0,1.66-1.35,3-3,3H40.82c-1.66,0-3-1.34-3-3V78.52c0-1.66,1.35-3,3-3h24.81c1.66,0,3,1.34,3,3
				v24.82H68.64z"/>
			<path class="st1" d="M31.67,140.35c0,1.66-1.35,3-3,3H3.85c-1.66,0-3-1.34-3-3v-24.81c0-1.66,1.34-3,3-3h24.82c1.65,0,3,1.34,3,3
				V140.35z"/>
			<path class="st1" d="M68.64,140.35c0,1.66-1.35,3-3,3H40.82c-1.66,0-3-1.34-3-3v-24.81c0-1.66,1.35-3,3-3h24.81
				c1.66,0,3,1.34,3,3v24.81H68.64z"/>
			<path class="st2" d="M33.2,16.98c0,9.36-7.59,16.95-16.95,16.95S-0.69,26.34-0.69,16.98S6.89,0.03,16.25,0.03
				C25.62,0.03,33.2,7.63,33.2,16.98"/>
			<path class="st0" d="M125.54,118.62h6.86c3.22,0,5.56,0.48,7,1.44s2.16,2.48,2.16,4.56c0,1.44-0.4,2.62-1.21,3.56
				c-0.8,0.93-1.98,1.54-3.51,1.82v0.17c3.69,0.63,5.53,2.57,5.53,5.81c0,2.17-0.73,3.86-2.2,5.08s-3.52,1.82-6.16,1.82h-8.48
				v-24.26H125.54z M128.37,129.01h4.65c1.99,0,3.43-0.31,4.3-0.94c0.88-0.62,1.31-1.68,1.31-3.16c0-1.36-0.49-2.34-1.46-2.95
				c-0.98-0.6-2.53-0.9-4.65-0.9h-4.15V129.01z M128.37,131.4v9.07h5.07c1.96,0,3.44-0.38,4.43-1.14c0.99-0.76,1.49-1.94,1.49-3.56
				c0-1.5-0.51-2.61-1.52-3.32c-1.01-0.71-2.56-1.06-4.63-1.06L128.37,131.4L128.37,131.4z"/>
			<path class="st0" d="M158.38,142.88l-0.55-2.59h-0.13c-0.91,1.14-1.82,1.91-2.72,2.31s-2.03,0.61-3.38,0.61
				c-1.8,0-3.22-0.46-4.25-1.39c-1.02-0.93-1.54-2.25-1.54-3.97c0-3.67,2.94-5.6,8.83-5.77l3.09-0.1v-1.13
				c0-1.43-0.31-2.48-0.92-3.16c-0.61-0.68-1.6-1.02-2.95-1.02c-1.52,0-3.24,0.46-5.15,1.39l-0.85-2.11
				c0.9-0.49,1.88-0.87,2.95-1.15s2.14-0.42,3.22-0.42c2.17,0,3.78,0.48,4.83,1.44s1.57,2.51,1.57,4.63v12.41h-2.05V142.88z
				 M152.15,140.94c1.72,0,3.07-0.47,4.05-1.41s1.47-2.26,1.47-3.95v-1.64l-2.76,0.12c-2.19,0.08-3.78,0.42-4.74,1.02
				c-0.97,0.6-1.45,1.54-1.45,2.81c0,1,0.3,1.75,0.9,2.27C150.22,140.68,151.06,140.94,152.15,140.94"/>
			<path class="st0" d="M178.57,142.88v-11.76c0-1.48-0.34-2.59-1.01-3.32c-0.68-0.73-1.73-1.1-3.17-1.1c-1.92,0-3.32,0.52-4.2,1.56
				c-0.88,1.04-1.32,2.74-1.32,5.11v9.51h-2.76v-25.82h2.76v7.81c0,0.94-0.04,1.72-0.13,2.34h0.17c0.54-0.87,1.32-1.56,2.32-2.07
				c1-0.5,2.15-0.75,3.43-0.75c2.23,0,3.9,0.53,5.01,1.58c1.11,1.06,1.67,2.73,1.67,5.04v11.86h-2.77V142.88z"/>
			<path class="st0" d="M186.77,119.77c0-0.63,0.15-1.09,0.46-1.38c0.31-0.29,0.7-0.44,1.16-0.44c0.44,0,0.82,0.15,1.15,0.45
				c0.32,0.3,0.48,0.76,0.48,1.38c0,0.62-0.16,1.08-0.48,1.39c-0.32,0.3-0.7,0.46-1.15,0.46c-0.46,0-0.85-0.15-1.16-0.46
				C186.92,120.85,186.77,120.39,186.77,119.77 M189.76,142.88H187V124.7h2.76V142.88z"/>
			<path class="st0" d="M206.81,142.88l-0.55-2.59h-0.13c-0.91,1.14-1.82,1.91-2.72,2.31s-2.03,0.61-3.38,0.61
				c-1.8,0-3.22-0.46-4.25-1.39c-1.02-0.93-1.54-2.25-1.54-3.97c0-3.67,2.94-5.6,8.83-5.77l3.09-0.1v-1.13
				c0-1.43-0.31-2.48-0.92-3.16c-0.61-0.68-1.6-1.02-2.95-1.02c-1.52,0-3.24,0.46-5.15,1.39l-0.85-2.11
				c0.9-0.49,1.88-0.87,2.95-1.15s2.14-0.42,3.22-0.42c2.17,0,3.78,0.48,4.83,1.44s1.57,2.51,1.57,4.63v12.41h-2.05V142.88z
				 M200.58,140.94c1.72,0,3.07-0.47,4.05-1.41s1.47-2.26,1.47-3.95v-1.64l-2.76,0.12c-2.19,0.08-3.78,0.42-4.74,1.02
				c-0.97,0.6-1.45,1.54-1.45,2.81c0,1,0.3,1.75,0.9,2.27C198.65,140.68,199.49,140.94,200.58,140.94"/>
		</g>
	</g>
</g>
</svg>
